<svg width="241" height="61" viewBox="0 0 241 61" fill="none" xmlns="http://www.w3.org/2000/svg">
<rect x="0.234192" y="0.636963" width="240" height="60" fill="#D9D9D9"/>
<path d="M68.2035 26.137C67.9535 25.3718 67.624 24.6862 67.2149 24.0801C66.8133 23.4665 66.3323 22.9438 65.7717 22.512C65.2187 22.0801 64.5899 21.7506 63.8853 21.5233C63.1808 21.2961 62.408 21.1824 61.5671 21.1824C60.1883 21.1824 58.9346 21.5385 57.8058 22.2506C56.677 22.9627 55.7793 24.012 55.1126 25.3983C54.4459 26.7847 54.1126 28.4854 54.1126 30.5006C54.1126 32.5158 54.4497 34.2165 55.124 35.6029C55.7982 36.9892 56.7111 38.0385 57.8626 38.7506C59.0141 39.4627 60.3096 39.8188 61.749 39.8188C63.0823 39.8188 64.2565 39.5347 65.2717 38.9665C66.2944 38.3908 67.0899 37.5801 67.658 36.5347C68.2338 35.4817 68.5217 34.243 68.5217 32.8188L69.3853 33.0006H62.3853V30.5006H71.249V33.0006C71.249 34.9173 70.8399 36.5839 70.0217 38.0006C69.2111 39.4173 68.0899 40.5158 66.658 41.2961C65.2338 42.0688 63.5974 42.4551 61.749 42.4551C59.6883 42.4551 57.8777 41.9703 56.3171 41.0006C54.7641 40.0309 53.552 38.6521 52.6808 36.8642C51.8171 35.0764 51.3853 32.9551 51.3853 30.5006C51.3853 28.6597 51.6315 27.0044 52.124 25.5347C52.624 24.0574 53.3285 22.7998 54.2376 21.762C55.1467 20.7241 56.2224 19.9286 57.4649 19.3756C58.7073 18.8226 60.0747 18.5461 61.5671 18.5461C62.7944 18.5461 63.9383 18.7317 64.999 19.1029C66.0671 19.4665 67.0179 19.9854 67.8512 20.6597C68.6921 21.3264 69.3929 22.1256 69.9535 23.0574C70.5141 23.9817 70.9005 25.0082 71.1126 26.137H68.2035ZM77.4393 48.6824C76.9847 48.6824 76.5794 48.6445 76.2234 48.5688C75.8673 48.5006 75.6211 48.4324 75.4847 48.3642L76.1666 46.0006C76.8181 46.1673 77.3938 46.2279 77.8938 46.1824C78.3938 46.137 78.837 45.9135 79.2234 45.512C79.6173 45.118 79.9772 44.4779 80.3029 43.5915L80.8029 42.2279L74.3484 24.6824H77.2575L82.0757 38.5915H82.2575L87.0757 24.6824H89.9848L82.5757 44.6824C82.2423 45.5839 81.8294 46.3301 81.337 46.9211C80.8446 47.5195 80.2726 47.9627 79.6211 48.2506C78.9772 48.5385 78.2499 48.6824 77.4393 48.6824ZM93.5245 42.137V24.6824H96.1154V27.4097H96.3427C96.7063 26.4779 97.2935 25.7544 98.1041 25.2392C98.9147 24.7165 99.8882 24.4551 101.025 24.4551C102.176 24.4551 103.134 24.7165 103.9 25.2392C104.672 25.7544 105.275 26.4779 105.706 27.4097H105.888C106.335 26.5082 107.006 25.7923 107.9 25.262C108.793 24.7241 109.865 24.4551 111.115 24.4551C112.676 24.4551 113.953 24.9438 114.945 25.9211C115.937 26.8908 116.434 28.4021 116.434 30.4551V42.137H113.752V30.4551C113.752 29.1673 113.4 28.2468 112.695 27.6938C111.99 27.1408 111.161 26.8642 110.206 26.8642C108.979 26.8642 108.028 27.2354 107.354 27.9779C106.68 28.7127 106.343 29.6445 106.343 30.7733V42.137H103.615V30.1824C103.615 29.19 103.293 28.3908 102.65 27.7847C102.006 27.1711 101.176 26.8642 100.161 26.8642C99.4639 26.8642 98.8124 27.0498 98.2063 27.4211C97.6079 27.7923 97.123 28.3074 96.7518 28.9665C96.3882 29.618 96.2063 30.3718 96.2063 31.2279V42.137H93.5245ZM149.428 26.137H146.61C146.443 25.3264 146.151 24.6142 145.735 24.0006C145.326 23.387 144.826 22.8718 144.235 22.4551C143.651 22.0309 143.004 21.7127 142.292 21.5006C141.579 21.2885 140.837 21.1824 140.064 21.1824C138.655 21.1824 137.379 21.5385 136.235 22.2506C135.098 22.9627 134.193 24.012 133.519 25.3983C132.852 26.7847 132.519 28.4854 132.519 30.5006C132.519 32.5158 132.852 34.2165 133.519 35.6029C134.193 36.9892 135.098 38.0385 136.235 38.7506C137.379 39.4627 138.655 39.8188 140.064 39.8188C140.837 39.8188 141.579 39.7127 142.292 39.5006C143.004 39.2885 143.651 38.9741 144.235 38.5574C144.826 38.1332 145.326 37.6142 145.735 37.0006C146.151 36.3794 146.443 35.6673 146.61 34.8642H149.428C149.216 36.0536 148.829 37.118 148.269 38.0574C147.708 38.9968 147.011 39.7961 146.178 40.4551C145.345 41.1067 144.409 41.6029 143.371 41.9438C142.341 42.2847 141.239 42.4551 140.064 42.4551C138.079 42.4551 136.314 41.9703 134.769 41.0006C133.223 40.0309 132.007 38.6521 131.121 36.8642C130.235 35.0764 129.792 32.9551 129.792 30.5006C129.792 28.0461 130.235 25.9248 131.121 24.137C132.007 22.3491 133.223 20.9703 134.769 20.0006C136.314 19.0309 138.079 18.5461 140.064 18.5461C141.239 18.5461 142.341 18.7165 143.371 19.0574C144.409 19.3983 145.345 19.8983 146.178 20.5574C147.011 21.2089 147.708 22.0044 148.269 22.9438C148.829 23.8756 149.216 24.94 149.428 26.137ZM156.3 31.637V42.137H153.618V18.8642H156.3V27.4097H156.527C156.936 26.5082 157.55 25.7923 158.368 25.262C159.194 24.7241 160.293 24.4551 161.664 24.4551C162.853 24.4551 163.895 24.6938 164.789 25.1711C165.683 25.6408 166.376 26.3642 166.868 27.3415C167.368 28.3112 167.618 29.5461 167.618 31.0461V42.137H164.936V31.2279C164.936 29.8415 164.577 28.7695 163.857 28.012C163.145 27.2468 162.156 26.8642 160.891 26.8642C160.012 26.8642 159.224 27.0498 158.527 27.4211C157.838 27.7923 157.293 28.3339 156.891 29.0461C156.497 29.7582 156.3 30.6218 156.3 31.637ZM177.661 42.5461C176.555 42.5461 175.551 42.3377 174.65 41.9211C173.748 41.4968 173.032 40.887 172.502 40.0915C171.971 39.2885 171.706 38.3188 171.706 37.1824C171.706 36.1824 171.903 35.3718 172.297 34.7506C172.691 34.1218 173.218 33.6294 173.877 33.2733C174.536 32.9173 175.263 32.6521 176.059 32.4779C176.862 32.2961 177.668 32.1521 178.479 32.0461C179.54 31.9097 180.4 31.8074 181.059 31.7392C181.725 31.6635 182.21 31.5385 182.513 31.3642C182.824 31.19 182.979 30.887 182.979 30.4551V30.3642C182.979 29.243 182.672 28.3718 182.059 27.7506C181.453 27.1294 180.532 26.8188 179.297 26.8188C178.017 26.8188 177.013 27.0991 176.286 27.6597C175.559 28.2203 175.047 28.8188 174.752 29.4551L172.206 28.5461C172.661 27.4854 173.267 26.6597 174.025 26.0688C174.79 25.4703 175.623 25.0536 176.525 24.8188C177.434 24.5764 178.328 24.4551 179.206 24.4551C179.767 24.4551 180.411 24.5233 181.138 24.6597C181.873 24.7885 182.581 25.0574 183.263 25.4665C183.953 25.8756 184.525 26.493 184.979 27.3188C185.434 28.1445 185.661 29.2506 185.661 30.637V42.137H182.979V39.7733H182.843C182.661 40.1521 182.358 40.5574 181.934 40.9892C181.509 41.4211 180.945 41.7885 180.24 42.0915C179.536 42.3945 178.676 42.5461 177.661 42.5461ZM178.07 40.137C179.131 40.137 180.025 39.9286 180.752 39.512C181.487 39.0953 182.04 38.5574 182.411 37.8983C182.79 37.2392 182.979 36.5461 182.979 35.8188V33.3642C182.865 33.5006 182.615 33.6256 182.229 33.7392C181.85 33.8453 181.411 33.94 180.911 34.0233C180.418 34.0991 179.937 34.1673 179.468 34.2279C179.006 34.2809 178.631 34.3264 178.343 34.3642C177.646 34.4551 176.994 34.6029 176.388 34.8074C175.79 35.0044 175.305 35.3036 174.934 35.7051C174.57 36.0991 174.388 36.637 174.388 37.3188C174.388 38.2506 174.733 38.9551 175.422 39.4324C176.119 39.9021 177.002 40.137 178.07 40.137ZM190.556 42.137V24.6824H193.147V27.3188H193.328C193.647 26.4551 194.222 25.7544 195.056 25.2165C195.889 24.6786 196.829 24.4097 197.874 24.4097C198.071 24.4097 198.317 24.4135 198.613 24.4211C198.908 24.4286 199.132 24.44 199.283 24.4551V27.1824C199.192 27.1597 198.984 27.1256 198.658 27.0801C198.34 27.0271 198.003 27.0006 197.647 27.0006C196.798 27.0006 196.041 27.1786 195.374 27.5347C194.715 27.8832 194.192 28.368 193.806 28.9892C193.427 29.6029 193.238 30.3036 193.238 31.0915V42.137H190.556ZM211.147 24.6824V26.9551H202.101V24.6824H211.147ZM204.738 20.5006H207.419V37.137C207.419 37.8945 207.529 38.4627 207.749 38.8415C207.976 39.2127 208.264 39.4627 208.613 39.5915C208.969 39.7127 209.344 39.7733 209.738 39.7733C210.033 39.7733 210.275 39.7582 210.465 39.7279C210.654 39.69 210.806 39.6597 210.919 39.637L211.465 42.0461C211.283 42.1142 211.029 42.1824 210.703 42.2506C210.378 42.3264 209.965 42.3642 209.465 42.3642C208.707 42.3642 207.965 42.2014 207.238 41.8756C206.518 41.5498 205.919 41.0536 205.442 40.387C204.972 39.7203 204.738 38.8794 204.738 37.8642V20.5006ZM227.232 28.5915L224.823 29.2733C224.671 28.8718 224.448 28.4817 224.152 28.1029C223.864 27.7165 223.471 27.3983 222.971 27.1483C222.471 26.8983 221.83 26.7733 221.05 26.7733C219.982 26.7733 219.092 27.0195 218.38 27.512C217.675 27.9968 217.323 28.6142 217.323 29.3642C217.323 30.0309 217.565 30.5574 218.05 30.9438C218.535 31.3301 219.293 31.6521 220.323 31.9097L222.914 32.5461C224.474 32.9248 225.637 33.5044 226.402 34.2847C227.168 35.0574 227.55 36.0536 227.55 37.2733C227.55 38.2733 227.262 39.1673 226.686 39.9551C226.118 40.743 225.323 41.3642 224.3 41.8188C223.277 42.2733 222.088 42.5006 220.732 42.5006C218.952 42.5006 217.478 42.1142 216.311 41.3415C215.145 40.5688 214.406 39.44 214.096 37.9551L216.641 37.3188C216.883 38.2582 217.342 38.9627 218.016 39.4324C218.698 39.9021 219.588 40.137 220.686 40.137C221.936 40.137 222.929 39.8718 223.664 39.3415C224.406 38.8036 224.777 38.1597 224.777 37.4097C224.777 36.8036 224.565 36.2961 224.141 35.887C223.717 35.4703 223.065 35.1597 222.186 34.9551L219.277 34.2733C217.679 33.8945 216.505 33.3074 215.755 32.512C215.012 31.7089 214.641 30.7051 214.641 29.5006C214.641 28.5158 214.918 27.6445 215.471 26.887C216.031 26.1294 216.793 25.5347 217.755 25.1029C218.724 24.6711 219.823 24.4551 221.05 24.4551C222.777 24.4551 224.133 24.8339 225.118 25.5915C226.111 26.3491 226.815 27.3491 227.232 28.5915Z" fill="black"/>
</svg>
